PERFORMER "David Guetta"
TITLE "Essential Mix (2005-01-23)"
FILE "David Guetta - Essential Mix (23.01.2005).mp3" MP3
  TRACK 01 AUDIO
    PERFORMER "Mylo"
    TITLE "Destroy Rock & Roll (Tom Neville Remix)"
    INDEX 01 00:00:00
  TRACK 02 AUDIO
    PERFORMER "Tony Sengor"
    TITLE "Peace (Sebastian Ingrosso Remix)"
    INDEX 01 03:38:20
  TRACK 03 AUDIO
    PERFORMER "Jean Francisco meets Joseph Armani"
    TITLE "Infatuation"
    INDEX 01 08:06:00
  TRACK 04 AUDIO
    PERFORMER "Morillo"
    TITLE "What Do You Want (Fuzzy Hair Remix)"
    INDEX 01 11:34:20
  TRACK 05 AUDIO
    PERFORMER "David Guetta, Tim Deluxe, Bob Sinclar, Joachim Garraud"
    TITLE "Summer Moon (F**k Me I'm Famous Remix)"
    INDEX 01 14:34:40
  TRACK 06 AUDIO
    PERFORMER "DJ Phoenix"
    TITLE "Do You Love Me"
    INDEX 01 19:13:65
  TRACK 07 AUDIO
    PERFORMER "Cerrone"
    TITLE "Je Suis Music (Armand Van Helden Remix)"
    INDEX 01 20:36:20
  TRACK 08 AUDIO
    PERFORMER "Roman Flugel"
    TITLE "Geht Noch"
    INDEX 01 26:46:20
  TRACK 09 AUDIO
    PERFORMER "Steve Angelo & Sebastian Ingrosso"
    TITLE "Yeah"
    INDEX 01 27:53:30
  TRACK 10 AUDIO
    PERFORMER "David Guetta"
    TITLE "The World Is Mine (Deep Dish Remix)"
    INDEX 01 33:29:30
  TRACK 11 AUDIO
    PERFORMER "Anne Clark"
    TITLE "Bootleg"
    INDEX 01 40:32:40
  TRACK 12 AUDIO
    PERFORMER "Hunteman"
    TITLE "Rock Royal"
    INDEX 01 45:44:40
  TRACK 13 AUDIO
    PERFORMER "Zoot Woman"
    TITLE "Grey Day"
    INDEX 01 48:31:30
  TRACK 14 AUDIO
    PERFORMER "Juliet"
    TITLE "Avalon (David Guetta & Joachim Garraud Remix)"
    INDEX 01 52:52:40
  TRACK 15 AUDIO
    PERFORMER "Laura Pausini"
    TITLE "La Noche (Dub Remix)"
    INDEX 01 59:45:40
  TRACK 16 AUDIO
    PERFORMER "Coca & Villa"
    TITLE "La Noche"
    INDEX 01 63:27:00
  TRACK 17 AUDIO
    PERFORMER "Wally Lopez & David Ferrero"
    TITLE "Going Insane"
    INDEX 01 69:51:00
  TRACK 18 AUDIO
    PERFORMER "Tom Novy"
    TITLE "Change Your Heart"
    INDEX 01 75:48:70
  TRACK 19 AUDIO
    PERFORMER "Candy Staton"
    TITLE "Your Love (Bootleg)"
    INDEX 01 80:34:65
  TRACK 20 AUDIO
    PERFORMER "David Guetta"
    TITLE "Just A Little More Love (Wally Lopez Remix)"
    INDEX 01 85:41:10
  TRACK 21 AUDIO
    PERFORMER "Guy Gerber"
    TITLE "Stoppage Time"
    INDEX 01 91:35:25
  TRACK 22 AUDIO
    PERFORMER "Jaguar"
    TITLE "Night Of The Jaguar"
    INDEX 01 99:30:00
  TRACK 23 AUDIO
    PERFORMER "David Guetta"
    TITLE "The World Is Mine (F**k Me I'm Famous Remix)"
    INDEX 01 104:24:15
  TRACK 24 AUDIO
    PERFORMER "Man With Guitar"
    TITLE "Man With Guitar"
    INDEX 01 110:18:40
  TRACK 25 AUDIO
    PERFORMER "Plastikman"
    TITLE "Spastic"
    INDEX 01 115:36:10
  TRACK 26 AUDIO
    PERFORMER "Sandy W."
    TITLE "I've Got Love"
    INDEX 01 117:19:00